<?xml version="1.0" encoding="UTF-8"?>
<svg id="Layer_2" data-name="Layer 2" xmlns="http://www.w3.org/2000/svg" viewBox="0 0 256 256">
  <defs>
    <style>
      .cls-1 {
        fill: none;
      }

      .cls-2 {
        fill: #ebebeb;
      }

      .cls-3 {
        fill: #4b4bac;
      }

      .cls-4 {
        fill: #7171d4;
      }

      .cls-5 {
        fill: #fff;
      }
    </style>
  </defs>
  <g id="Layer_1-2" data-name="Layer 1">
    <g>
      <rect class="cls-3" width="128" height="256"/>
      <rect class="cls-4" x="128" width="128" height="256"/>
      <g>
        <path class="cls-1" d="M91.95,100.38h-10.39v30.82h11.11c12.19,0,17.92-6.09,17.92-16.49s-6.81-14.34-18.64-14.34Z"/>
        <path class="cls-2" d="M93.38,76.01h-42.65v116.48h30.82v-36.92h12.54c12.89,0,25.18-3.46,33.9-10.94v-59.24c-8.75-6.78-21.18-9.38-34.62-9.38ZM92.67,131.2h-11.11v-30.82h10.39c11.83,0,18.64,3.94,18.64,14.34s-5.73,16.49-17.92,16.49Z"/>
        <path class="cls-5" d="M128,85.39v59.24c7.76-6.66,12.69-16.5,12.69-29.92s-4.87-23.27-12.69-29.33Z"/>
        <path class="cls-5" d="M210.57,100.74c-8.78,0-18.82,5.38-25.45,17.56h-.72l-2.15-15.41h-25.09v89.6h30.82v-49.82c4.3-11.11,12.19-15.05,18.64-15.05,3.94,0,6.81.72,10.04,1.43l5.02-26.52c-2.51-1.08-5.56-1.79-11.11-1.79Z"/>
      </g>
    </g>
  </g>
</svg>