<?xml version="1.0" encoding="UTF-8"?>
<svg id="Layer_2" xmlns="http://www.w3.org/2000/svg" version="1.1" viewBox="0 0 256 256">
  <!-- Generator: Adobe Illustrator 30.1.0, SVG Export Plug-In . SVG Version: 2.1.1 Build 136)  -->
  <defs>
    <style>
      .st0 {
        fill: none;
      }

      .st1 {
        fill: #535258;
      }

      .st2 {
        fill: #255787;
      }

      .st3 {
        fill: #ebebeb;
      }

      .st4 {
        fill: #fff;
      }

      .st5 {
        fill: #ce680d;
      }

      .st6 {
        fill: #1d1c21;
      }

      .st7 {
        fill: #e87c0c;
      }
    </style>
  </defs>
  <rect class="st1" x="128" width="128" height="256"/>
  <path class="st4" d="M162.6,97.3c-13.4,0-25.5,4.7-34.6,12.4-9.8,8.4-16,20.2-16,33.4s6.1,25,16,33.4c9,7.7,21.2,12.4,34.6,12.4,27.9,0,50.5-20.5,50.5-45.8s-22.6-45.8-50.5-45.8Z"/>
  <rect class="st6" width="128" height="256"/>
  <ellipse class="st2" cx="162.6" cy="143.1" rx="32.6" ry="29.5"/>
  <path class="st0" d="M112,143.1c0,13.2,6.1,25,16,33.4v-66.8c-9.8,8.4-16,20.2-16,33.4Z"/>
  <polygon class="st0" points="128 57.7 128 73.7 148.5 73.6 128 57.7"/>
  <path class="st5" d="M122.3,35.8c-4.7,6-3.6,14.7,2.5,19.3l3.3,2.5v-26.2c-2.2.9-4.2,2.3-5.7,4.3Z"/>
  <path class="st5" d="M112,143.1c0-13.2,6.1-25,16-33.4v-36.1l-72.7.2c-7,0-12.7,5.7-12.7,12.7,0,7,5.7,12.7,12.7,12.7h43.1c0,0-84.3,65.4-84.3,65.4-6.3,4.9-7.5,14-2.5,20.3,2.9,3.7,7.1,5.6,11.4,5.6s6.2-1,8.9-3.1l48.5-37.7c.7,29.5,20,54.7,47.5,66.5v-39.8c-9.8-8.4-16-20.2-16-33.4Z"/>
  <path class="st7" d="M211.2,87.3h0l-69.6-53.9c-4-3.1-9.2-3.6-13.6-1.9v26.2l20.5,15.9h-20.5v36.1c9-7.7,21.2-12.4,34.6-12.4,27.9,0,50.5,20.5,50.5,45.8s-22.6,45.8-50.5,45.8-25.5-4.7-34.6-12.4v39.8c10.5,4.5,22.3,7,34.7,7,44.8,0,82.2-33.7,82.2-75.2s-13.3-47.1-33.7-60.8Z"/>
  <path class="st3" d="M112,143.1c0,13.2,6.1,25,16,33.4v-66.8c-9.8,8.4-16,20.2-16,33.4Z"/>
</svg>