<?xml version="1.0" encoding="UTF-8"?>
<svg id="Layer_2" data-name="Layer 2" xmlns="http://www.w3.org/2000/svg" viewBox="0 0 256 256">
  <defs>
    <style>
      .cls-1 {
        fill: none;
      }

      .cls-2 {
        fill: #ebebeb;
      }

      .cls-3 {
        fill: #fff;
      }

      .cls-4 {
        fill: #f23060;
      }

      .cls-5 {
        fill: #ba214a;
      }
    </style>
  </defs>
  <g id="Layer_1-2" data-name="Layer 1">
    <g>
      <rect class="cls-5" width="128" height="256"/>
      <rect class="cls-4" x="128" width="128" height="256"/>
      <g>
        <path class="cls-1" d="M144.02,147.33c0,16.13,5.02,22.22,13.26,22.22,4.66,0,8.24-1.43,11.47-6.45v-32.97c-3.58-3.23-8.24-4.3-12.19-4.3-6.45,0-12.54,5.73-12.54,21.5Z"/>
        <rect class="cls-2" x="62.31" y="76.01" width="30.82" height="116.48"/>
        <path class="cls-3" d="M168.75,67.76v29.03l1.08,12.9c-5.38-5.38-11.11-8.96-20.79-8.96-7.42,0-14.84,2.9-21.04,8.3v78.62c5.73,4.53,12.84,6.98,21.04,6.98s16.49-4.3,22.58-10.39h.72l2.15,8.24h25.09v-124.72h-30.82ZM168.75,163.1c-3.23,5.02-6.81,6.45-11.47,6.45-8.24,0-13.26-6.09-13.26-22.22s6.09-21.5,12.54-21.5c3.94,0,8.6,1.08,12.19,4.3v32.97Z"/>
        <path class="cls-2" d="M112.48,147.69c0,18.32,5.72,32.21,15.52,39.97v-78.62c-9.07,7.91-15.52,21.19-15.52,38.65Z"/>
      </g>
    </g>
  </g>
</svg>