<?xml version="1.0" encoding="UTF-8"?>
<svg id="Layer_2" data-name="Layer 2" xmlns="http://www.w3.org/2000/svg" viewBox="0 0 256 256">
  <defs>
    <style>
      .cls-1 {
        fill: none;
      }

      .cls-2 {
        fill: #2075b5;
      }

      .cls-3 {
        fill: #ebebeb;
      }

      .cls-4 {
        fill: #fff;
      }

      .cls-5 {
        fill: #30a0f4;
      }
    </style>
  </defs>
  <g id="Layer_1-2" data-name="Layer 1">
    <g>
      <rect class="cls-5" x="128" width="128" height="256"/>
      <rect class="cls-2" width="128" height="256"/>
      <g>
        <path class="cls-1" d="M89.73,92.62h-10.39v30.82h11.11c12.19,0,17.92-6.09,17.92-16.49s-6.81-14.34-18.64-14.34Z"/>
        <path class="cls-3" d="M91.16,68.25h-42.65v116.48h30.82v-36.92h12.54c14.03,0,27.35-4.11,36.12-13.03v-55.25c-8.79-8.19-22.22-11.28-36.84-11.28ZM90.44,123.44h-11.11v-30.82h10.39c11.83,0,18.64,3.94,18.64,14.34s-5.73,16.49-17.92,16.49Z"/>
        <path class="cls-4" d="M128,79.53v55.25c6.46-6.57,10.47-15.74,10.47-27.83s-3.97-21.36-10.47-27.42Z"/>
        <path class="cls-4" d="M196.17,130.25c-8.96-3.23-16.84-5.02-16.84-9.68,0-3.58,2.69-5.02,7.88-5.02,5.55,0,11.83,2.87,18.28,7.53l13.62-18.28c-7.88-5.91-18.28-11.83-32.97-11.83-21.15,0-35.48,11.47-35.48,29.03,0,14.69,12.19,22.4,22.58,26.52,8.96,3.58,17.2,5.73,17.2,10.39,0,3.58-2.51,5.38-8.96,5.38s-13.62-2.87-21.86-8.96l-13.62,19c9.32,7.53,23.3,12.54,34.76,12.54,25.09,0,38.35-12.9,38.35-29.75s-12.19-22.94-22.94-26.88Z"/>
      </g>
    </g>
  </g>
</svg>