<?xml version="1.0" encoding="UTF-8"?>
<svg id="Layer_2" data-name="Layer 2" xmlns="http://www.w3.org/2000/svg" viewBox="0 0 334.41 272.77">
  <defs>
    <style>
      .cls-1 {
        fill: #255787;
      }

      .cls-2 {
        fill: #fff;
      }

      .cls-3 {
        fill: #e87c0c;
      }
    </style>
  </defs>
  <g id="Layer_1-2" data-name="Layer 1">
    <g>
      <path class="cls-3" d="M286.69,80.33L188.27,4.09c-8.51-6.59-20.76-5.04-27.36,3.47-6.6,8.51-5.04,20.76,3.47,27.36l33.67,26.08-131.89.29c-9.94.02-17.98,8.1-17.96,18.04.02,9.93,8.08,17.96,18,17.96h.04l60.89-.13L7.92,189.81c-8.94,6.95-10.55,19.83-3.6,28.77,4.04,5.2,10.09,7.92,16.2,7.92,4.4,0,8.83-1.41,12.57-4.32l68.68-53.38c1.45,57.64,52.97,103.96,116.31,103.96s116.34-47.66,116.34-106.46c0-35.31-18.79-66.6-47.72-85.97ZM217.97,224.17c-39.49,0-71.51-29.02-71.51-64.83s32.02-64.83,71.51-64.83,71.51,29.02,71.51,64.83-32.02,64.83-71.51,64.83Z"/>
      <path class="cls-2" d="M217.97,224.17c-39.49,0-71.51-29.02-71.51-64.83s32.02-64.83,71.51-64.83,71.51,29.02,71.51,64.83-32.02,64.83-71.51,64.83Z"/>
      <ellipse class="cls-1" cx="217.97" cy="159.34" rx="46.1" ry="41.79"/>
    </g>
  </g>
</svg>