<?xml version="1.0" encoding="UTF-8"?>
<svg id="Layer_2" data-name="Layer 2" xmlns="http://www.w3.org/2000/svg" viewBox="0 0 256 256">
  <defs>
    <style>
      .cls-1 {
        fill: #ebebeb;
      }

      .cls-2 {
        fill: #df495d;
      }

      .cls-3 {
        fill: #cf2031;
      }

      .cls-4 {
        fill: #fff;
      }

      .cls-5 {
        fill: #ee5b67;
      }

      .cls-6 {
        fill: #fb8c62;
      }
    </style>
  </defs>
  <g id="Layer_1-2" data-name="Layer 1">
    <g>
      <g>
        <g>
          <rect class="cls-1" width="128" height="256"/>
          <rect class="cls-4" x="128" width="128" height="256"/>
        </g>
        <path class="cls-6" d="M128,21.3v106.7h106.7c0-58.93-47.77-106.7-106.7-106.7Z"/>
      </g>
      <g>
        <path class="cls-2" d="M128,21.3c-58.93,0-106.7,47.77-106.7,106.7s47.77,106.7,106.7,106.7V21.3Z"/>
        <path class="cls-5" d="M128,128v106.7c58.93,0,106.7-47.77,106.7-106.7h-106.7Z"/>
      </g>
      <rect class="cls-3" x="21.3" y="168.14" width="66.55" height="66.55"/>
      <path class="cls-4" d="M36.13,177.3h18.71c11.16,0,20.76,4.09,20.76,16.98s-9.75,17.92-20.44,17.92h-5.5v16.2h-13.52v-51.1ZM54.53,201.51c5.35,0,7.86-2.67,7.86-7.23s-2.99-6.29-8.18-6.29h-4.56v13.52h4.87Z"/>
    </g>
  </g>
</svg>