<?xml version="1.0" encoding="UTF-8"?>
<svg id="Layer_2" data-name="Layer 2" xmlns="http://www.w3.org/2000/svg" viewBox="0 0 256 256">
  <defs>
    <style>
      .cls-1 {
        fill: none;
      }

      .cls-2 {
        fill: #ebebeb;
      }

      .cls-3 {
        fill: #4b4bac;
      }

      .cls-4 {
        fill: #7171d4;
      }

      .cls-5 {
        fill: #fff;
      }
    </style>
  </defs>
  <g id="Layer_1-2" data-name="Layer 1">
    <g>
      <rect class="cls-4" x="128" width="128" height="256"/>
      <rect class="cls-3" width="128" height="256"/>
      <g>
        <path class="cls-1" d="M185.61,116.27c-6.81,0-12.54,3.94-14.34,12.9h26.52c0-6.81-2.87-12.9-12.19-12.9Z"/>
        <path class="cls-1" d="M83.47,91.19h-.72c-2.51,11.83-5.38,25.8-8.24,36.92l-1.89,8.06h21.34l-1.89-8.06c-2.87-11.11-5.73-25.27-8.6-36.92Z"/>
        <path class="cls-2" d="M102.47,68.25h-37.27l-35.48,116.48h31.54l5.79-24.73h32.5l5.79,24.73h22.66v-32.67s-25.53-83.81-25.53-83.81ZM72.63,136.16l1.89-8.06c2.87-11.11,5.73-25.09,8.24-36.92h.72c2.87,11.65,5.73,25.8,8.6,36.92l1.89,8.06h-21.34Z"/>
        <path class="cls-5" d="M223.96,136.34c0-24.01-12.54-43.37-39.07-43.37-21.86,0-43.01,17.92-43.01,46.95s20.07,46.95,46.23,46.95c10.04,0,22.94-3.58,32.61-10.39l-10.04-18.28c-6.45,3.58-12.19,5.38-18.28,5.38-10.04,0-17.92-3.58-20.79-14.34h51.07c.54-2.15,1.25-7.53,1.25-12.9ZM171.28,129.18c1.79-8.96,7.53-12.9,14.34-12.9,9.32,0,12.19,6.09,12.19,12.9h-26.52Z"/>
        <polygon class="cls-5" points="128 152.06 128 184.73 137.95 184.73 128 152.06"/>
      </g>
    </g>
  </g>
</svg>