<?xml version="1.0" encoding="UTF-8"?>
<svg id="Layer_2" data-name="Layer 2" xmlns="http://www.w3.org/2000/svg" viewBox="0 0 256 256">
  <defs>
    <style>
      .cls-1 {
        fill: #a23296;
      }

      .cls-2 {
        fill: #d04ac5;
      }

      .cls-3 {
        fill: #ebebeb;
      }

      .cls-4 {
        fill: #fff;
      }
    </style>
  </defs>
  <g id="Layer_1-2" data-name="Layer 1">
    <g>
      <rect class="cls-2" x="128" width="128" height="256"/>
      <rect class="cls-1" width="128" height="256"/>
      <path class="cls-3" d="M96.03,126.31l31.54,58.42h-34.41l-9.32-20.79c-2.87-6.09-5.38-12.19-8.24-19.35h-.72c-2.51,7.17-5.02,13.26-7.53,19.35l-8.6,20.79H25.79l31.54-59.85-29.75-56.63h34.41l7.88,19c2.51,5.38,5.02,11.83,8.24,19.35h.72c2.51-7.53,5.02-13.98,7.17-19.35l6.81-19h32.97l-29.75,58.06Z"/>
      <path class="cls-4" d="M219.32,60v124.72h-25.09l-2.15-8.24h-.72c-6.09,6.09-14.69,10.39-22.58,10.39-22.22,0-36.56-17.92-36.56-46.95s18.28-46.95,36.56-46.95c9.68,0,15.41,3.58,20.79,8.96l-1.08-12.9v-29.03h30.82ZM188.5,122.37c-3.58-3.23-8.24-4.3-12.19-4.3-6.45,0-12.54,5.73-12.54,21.5s5.02,22.22,13.26,22.22c4.66,0,8.24-1.43,11.47-6.45v-32.97Z"/>
    </g>
  </g>
</svg>