<?xml version="1.0" encoding="UTF-8"?>
<svg id="Layer_1" xmlns="http://www.w3.org/2000/svg" version="1.1" viewBox="0 0 20 20">
  <!-- Generator: Adobe Illustrator 30.1.0, SVG Export Plug-In . SVG Version: 2.1.1 Build 136)  -->
  <defs>
    <style>
      .st0 {
        fill: #818282;
        opacity: .3;
      }
    </style>
  </defs>
  <path class="st0" d="M3.4,13.3l-.4,3.6,3.6-.3,1.8,3.2,2.7-2.4,3.3,1.5.8-3.6,3.6-.7-1.4-3.3,2.5-2.7-3.1-1.9.4-3.6-3.6.3-1.8-3.2-2.7,2.4-3.3-1.5-.8,3.6-3.6.7,1.4,3.3L.2,11.4l3.1,1.9ZM17.3,11.3h0s0,0,0,0c0,0,0,0,0,0ZM16.6,6.7h0s0,0,0,0h0ZM15.2,15.3h0s0,0,0,0c0,0,0,0,0,0ZM11,17.3h-.1c0,0,.1,0,.2,0h0ZM13.5,3.5h0c0,0-.1,0-.2,0h.1ZM9,2.7h.1c0,0-.1,0-.2,0h0ZM7.1,9.5c.3-1.6,1.8-2.7,3.4-2.4,1.6.3,2.7,1.8,2.4,3.4-.3,1.6-1.8,2.7-3.4,2.4-1.6-.3-2.7-1.8-2.4-3.4ZM6.7,16.6h-.1s0,0,0,0c0,0,.1,0,.2,0ZM4.8,4.7h0s0,0,0,0h0ZM3.4,13.3h0c0,0,0-.1,0-.1,0,0,0,0,0,.1ZM2.7,8.7s0,0,0,0h0s0,0,0,0Z"/>
</svg>