<?xml version="1.0" encoding="UTF-8"?>
<svg id="Layer_1" xmlns="http://www.w3.org/2000/svg" version="1.1" viewBox="0 0 30 30">
  <!-- Generator: Adobe Illustrator 30.1.0, SVG Export Plug-In . SVG Version: 2.1.1 Build 136)  -->
  <defs>
    <style>
      .st0 {
        fill: #818282;
        isolation: isolate;
        opacity: .3;
      }
    </style>
  </defs>
  <path class="st0" d="M29.6,15.2l-.6-.5s0,0,0,0l.6-.5-.6-.5s0,0,0,0l.5-.6-.7-.4s0,0,0,0l.5-.6-.7-.4s0,0,0,0l.5-.6-.7-.3s0,0,0,0l.4-.7-.7-.3s0,0,0,0l.4-.7-.7-.2s0,0,0,0l.3-.7-.8-.2s0,0,0,0l.3-.7h-.8c0-.1,0-.1,0-.1l.2-.7h-.8c0,0,0,0,0,0l.2-.8h-.8s0,0,0,0v-.8c.1,0-.7,0-.7,0,0,0,0,0,0,0v-.8c0,0-.7.1-.7.1,0,0,0,0,0,0v-.8s-.8.2-.8.2c0,0,0,0,0,0v-.8c0,0-.8.2-.8.2,0,0,0,0,0,0v-.8c-.1,0-.8.3-.8.3,0,0,0,0,0,0l-.2-.8-.7.3s0,0,0,0l-.2-.7-.7.4s0,0,0,0l-.3-.7-.7.4s0,0,0,0l-.3-.7-.6.5s0,0,0,0l-.4-.7-.6.5s0,0,0,0l-.4-.7-.6.5s0,0,0,0l-.5-.6-.5.6s0,0,0,0l-.5-.6-.5.6s0,0,0,0l-.5-.6-.4.6s0,0,0,0l-.6-.5-.4.7s0,0,0,0l-.6-.5-.3.7s0,0,0,0l-.6-.4-.3.7s0,0,0,0l-.7-.4-.2.7s0,0,0,0l-.7-.3-.2.8s0,0,0,0l-.7-.3v.8c-.1,0-.1,0-.1,0l-.7-.2v.8c0,0,0,0,0,0,0,0,0,0,0,0l-.7-.2v.8s0,0,0,0h-.8c0-.1,0,.6,0,.6,0,0,0,0,0,0h-.8c0,0,0,.7,0,.7,0,0,0,0,0,0h-.8s.1.7.1.7c0,0,0,0,0,0h-.8s.2.8.2.8c0,0,0,0,0,0h-.8c0,0,.2.8.2.8,0,0,0,0,0,0h-.8c0,.1.3.8.3.8,0,0,0,0,0,0l-.7.2.3.7s0,0,0,0l-.7.2.4.7s0,0,0,0l-.7.3.4.6s0,0,0,0l-.7.3.5.6s0,0,0,0l-.7.4.5.6s0,0,0,0l-.6.4.6.5s0,0,0,0l-.6.5.6.5s0,0,0,0l-.6.5.6.5s0,0,0,0l-.5.6.7.4s0,0,0,0l-.5.6.7.4s0,0,0,0l-.5.6.7.3s0,0,0,0l-.4.7.7.3s0,0,0,0l-.4.7.7.2s0,0,0,0l-.3.7.8.2s0,0,0,0l-.3.7h.8c0,.1,0,.1,0,.1l-.2.7h.8c0,0,0,0,0,0l-.2.8h.8s0,0,0,0v.8c-.1,0,.7,0,.7,0,0,0,0,0,0,0v.8c0,0,.7-.1.7-.1,0,0,0,0,0,0v.8s.8-.2.8-.2c0,0,0,0,0,0v.8c0,0,.8-.2.8-.2,0,0,0,0,0,0v.8c.1,0,.8-.3.8-.3,0,0,0,0,0,0l.2.8.7-.3s0,0,0,0l.2.7.7-.4s0,0,0,0l.3.7.7-.4s0,0,0,0l.3.7.6-.5s0,0,0,0l.4.7.6-.5s0,0,0,0l.4.7.6-.5s0,0,0,0l.5.6.5-.6s0,0,0,0l.5.6.5-.6s0,0,0,0l.5.6.4-.6s0,0,0,0l.6.5.4-.7s0,0,0,0l.6.5.3-.7s0,0,0,0l.6.4.3-.7s0,0,0,0l.7.4.2-.7s0,0,0,0l.7.3.2-.8s0,0,0,0l.7.3v-.8c.1,0,.1,0,.1,0l.7.2v-.8c0,0,0,0,0,0,0,0,0,0,0,0l.7.2v-.8s0,0,0,0h.8c0,.1,0-.6,0-.6,0,0,0,0,0,0h.8c0,0,0-.7,0-.7,0,0,0,0,0,0h.8s-.1-.7-.1-.7c0,0,0,0,0,0h.8s-.2-.8-.2-.8c0,0,0,0,0,0h.8c0,0-.2-.8-.2-.8,0,0,0,0,0,0h.8c0-.1-.3-.8-.3-.8,0,0,0,0,0,0l.7-.2-.3-.7s0,0,0,0l.7-.2-.4-.7s0,0,0,0l.7-.3-.4-.6s0,0,0,0l.7-.3-.5-.6s0,0,0,0l.7-.4-.5-.6s0,0,0,0l.6-.4-.6-.5s0,0,0,0l.6-.5ZM3.4,8.6s0,0,0,0c0,0,0,0,0,0,0,0,0,0,0,0,.9-1.7,2.3-3.2,3.9-4.4C13.1.1,20.8,1.2,25.2,6.5c0,0,0,0,0,0,0,0,0,0,0,0,0,0,0,0,0,0,.1.2,0,.6-.3.7l-7.3,4.6c-1.4-1.2-3.4-1.4-5-.3-.3.2-.6.5-.8.8l-8-3.2c-.3-.1-.5-.4-.4-.7ZM15.3,28.3s0,0-.1,0c0,0,0,0,0,0,0,0,0,0,0,0-4.2,0-8.4-1.9-11-5.6-2.6-3.7-3.1-8.3-1.6-12.3,0,0,0,0,0,0,0,0,0,0,0,0,0,0,0,0,0-.1.1-.2.5-.3.8-.1l7.7,4c-.2,1,0,2.2.7,3.1s1.7,1.5,2.7,1.7l1.2,8.6c0,.3-.1.7-.4.7ZM13.5,16.1c-.6-.8-.4-2,.4-2.6.8-.6,2-.4,2.6.4.6.8.4,2-.4,2.6-.8.6-2,.4-2.6-.4ZM22.7,25.9c-1.7,1.2-3.5,1.9-5.4,2.2,0,0,0,0,0,0,0,0,0,0,0,0,0,0,0,0,0,0-.3,0-.5-.3-.5-.6l-.3-8.7c.4-.1.7-.3,1-.5,1.6-1.1,2.1-3.1,1.4-4.8l6.8-5.4c.3-.2.6-.2.8,0,0,0,0,0,0,0,0,0,0,0,0,0,0,0,0,0,0,0,3.5,5.9,1.9,13.6-3.8,17.6Z"/>
</svg>