<?xml version="1.0" encoding="UTF-8"?>
<svg id="Layer_2" xmlns="http://www.w3.org/2000/svg" version="1.1" viewBox="0 0 303.4 199.1">
  <!-- Generator: Adobe Illustrator 30.1.0, SVG Export Plug-In . SVG Version: 2.1.1 Build 136)  -->
  <defs>
    <style>
      .st0 {
        fill: #fff;
      }
    </style>
  </defs>
  <g id="Layer_1-2">
    <path class="st0" d="M297.4,8.6c.2,1.7.3,4.5-.3,8.6-.8,5.8-2.3,9.5-3.3,11.2h-61.9l-.7,5-6.3,45-.9,6.6h45.1c0,1.5,0,4.2-.6,8.8-1,6.9-2.1,10-2.7,11.3h-44.6l-.7,4.9-7.6,53.9-.9,6.6h62.9c.1,1.5.1,4.2-.5,8.7-.9,6.6-2.2,9.8-2.9,11.2h-63.9c.3-1.2.5-2.4.7-3.8.9-6.4,0-11.3-2.5-14.2-1.5-1.7-3.5-2.7-5.7-2.7h-7.1c3.2-23.1,19.2-136.9,22.6-161h81.8M300.8,2.8h-90.2c0,.2.1.3,0,.5,0,0-23.8,169.3-23.8,169.5,0,0,0,.2,0,.3,0,1.3.6,2.1,2.8,2.1h10.6c1.9,0,3.5,3.4,2.5,10.4-1,6.9-3.4,10.4-5.6,10.4h76.5c1.6,0,4.8-3.6,6.5-16.1s-.6-15.3-2.1-15.3h-59.4l7.6-53.9h41.5c1.4,0,4.5-1.9,6.5-16.3s-1-15.3-2.1-15.3h-41.5l6.3-45h59.4c1,0,5-5.1,6.5-16.2,1.5-11.1-.9-15.1-2.1-15.1h0ZM139.5,2.8l-52.9,92.1L60.3,4.3s-1-4.3-15.7-4.3-17.6,2.9-17.8,4.3C26.7,5.7.2,194.4,0,195.8s4.1,3.3,16,3.3,17.2-1.9,17.4-3.3,15.1-107.7,15.1-107.7l18.4,64.4s1.6,2.8,11.8,2.8,11.7-2.8,11.7-2.8l36.8-64.4s-14.4,102.5-14.7,104.2,1.9,4.4,7.5,4.4,14.8.2,15.9-.9c-1.6-.9-2.5-4.3-1.7-10.1,1-6.9,3.6-10.4,5.4-10.4h10.6c2.3,0,3.2-1,3.4-2.5l18-128.1c.2-1.7.1-2.9-.3-3.5-.4-.7-1.5-1-3.2-1h-13.7c-1.8,0-3-.5-3.9-1.5-.9-1-1.2-2.8-.5-8s1.6-6.8,2.6-8c.9-1,2.1-1.5,2.8-1.5h3.1c3.5,0,5.1-.4,7.4-1.2,2.3-.8,4.2-2,5.5-3.5,1.4-1.5,2.4-3.3,3-5.5.6-1.9,1.2-4.6,1.6-7.1C173.1,1.8,163.5,0,158,0c-14.4,0-18.6,2.8-18.6,2.8h0Z"/>
  </g>
</svg>