<?xml version="1.0" encoding="UTF-8"?>
<svg id="Layer_2" xmlns="http://www.w3.org/2000/svg" version="1.1" viewBox="0 0 637.4 422.6">
  <!-- Generator: Adobe Illustrator 30.1.0, SVG Export Plug-In . SVG Version: 2.1.1 Build 136)  -->
  <defs>
    <style>
      .st0 {
        fill: #fff;
      }
    </style>
  </defs>
  <g id="Layer_1-2">
    <path class="st0" d="M282,415.7c-2.3,2.4-23.8,1.9-27.1,1.9-11.8,0-16.4-5.7-15.9-9.4s31.1-221.2,31.1-221.2l-78.1,136.7s-3.1,6-24.9,6-25.1-6-25.1-6l-39-136.7s-31.7,225.6-32.1,228.7-11.9,7-37,7S-.4,418.5,0,415.6C.4,412.8,56.7,12.1,57.1,9.2S63.7,0,94.8,0s33.2,9.2,33.2,9.2l55.8,192.3L296.1,6s4.7-6,35.4-6,29.5,3.8,35.8,8.5c-.8,5.1-4,24.3-5.3,28.4-1.4,4.5-3.6,8.4-6.5,11.6-2.9,3.2-6.8,5.7-11.7,7.5-4.9,1.8-8.2,2.7-15.6,2.7h-6.5c-1.6,0-4.2.9-6,3.1-2,2.4-4,5.9-5.5,16.9-1.5,11-2,30.7,0,32.8s4.6,3.1,8.4,3.1h29.2c3.5,0,5.8.7,6.7,2.2.9,1.4,1.1,4,.6,7.5l-33.8,233.2c-.4,3-2.4,5.2-7.3,5.2h-22.5c-3.9,0-10.9,16.8-13,31.5-1.8,12.4.2,19.6,3.6,21.5h-.1ZM583.6,349.6h-126.1l16.1-114.5h88.1c3,0,9.6-3.9,13.9-34.6s-2.2-32.5-4.4-32.5h-88.1l13.4-95.5h126.1c2.2,0,10.5-10.9,13.8-34.4s-2-32.1-4.5-32.1h-191.6c.2.3.2.7.2,1,0,0-49.1,350-49.2,350.4v.6c-.1,2.7,1.4,4.6,5.9,4.6h22.5c3.9,0,6,16.8,4,31.5-2.1,14.7-7.2,22-11.8,22h162.4c3.5,0,10.1-7.7,13.8-34.3,3.7-26.6-1.2-32.4-4.4-32.4h0v.2Z"/>
  </g>
</svg>