<?xml version="1.0" encoding="UTF-8"?>
<svg id="Layer_2" data-name="Layer 2" xmlns="http://www.w3.org/2000/svg" viewBox="0 0 77.37 77.25">
  <defs>
    <style>
      .cls-1 {
        fill: #231f20;
      }
    </style>
  </defs>
  <g id="Layer_1-2" data-name="Layer 1">
    <path class="cls-1" d="M71.74,57.79c3.03-5.44,4.77-11.7,4.77-18.36C76.5,18.89,60.04,2.13,39.62,1.63l-.65-1.14-.28-.48-.93,1.63C17.33,2.13.87,18.89.87,39.43c0,6.66,1.73,12.92,4.77,18.36L.27,67.16l-.27.48h13.53c6.69,5.97,15.5,9.61,25.15,9.61s18.46-3.64,25.15-9.61h13.53l-5.63-9.85ZM75.71,39.43c0,6.35-1.61,12.33-4.44,17.55L40.08,2.43c19.77.73,35.64,17.05,35.64,37ZM1.66,39.43C1.66,19.48,17.52,3.17,37.29,2.43L6.09,56.98c-2.83-5.23-4.44-11.21-4.44-17.55ZM38.68,76.46c-9.13,0-17.49-3.32-23.95-8.81h47.9c-6.46,5.49-14.82,8.81-23.95,8.81ZM1.1,67L38.68,1.29l37.59,65.72H1.1ZM72.06,63.3c0,.07-.04.1-.1.1-1.36,0-2.72-.01-4.08-.02-.12,0-.21-.05-.26-.14-2.26-4.56-4.53-9.12-6.79-13.68-.06-.12-.04-.18.07-.18h3.03c.06,0,.13.05.22.14.09.09.17.21.25.34.07.12.12.24.16.35.04.12.02.17-.04.17h-2.08c-.07,0-.09.04-.04.12.88,1.7,1.77,3.39,2.65,5.09.04.08.1.12.16.12h2.12s.1.03.18.09c.08.06.19.21.32.44.13.23.19.37.17.43-.01.06-.05.09-.1.09h-2.11c-.1,0-.11.05-.06.16.92,1.77,1.84,3.54,2.77,5.31.05.09.13.14.23.14h2.61c.08,0,.15.03.23.08.08.05.18.2.31.42.12.22.18.36.17.42ZM62.24,63.3s-.03.08-.13.13c-.1.05-.26.07-.46.07-.22,0-.39-.02-.52-.07-.13-.05-.21-.1-.24-.17-.02-.04-.03-.08-.05-.12-.76-1.99-1.51-3.98-2.27-5.98-.03-.07-.04-.11-.05-.12,0-.01-.03-.05-.06-.1-.83-1.25-1.56-2.39-2.2-3.43-.27-.44-.54-.88-.81-1.32-.27-.44-.51-.84-.72-1.2-.22-.36-.4-.68-.55-.95-.15-.27-.25-.45-.31-.55-.09-.15.05-.22.4-.22.33-.03.52.02.59.14,1.02,1.7,2.08,3.39,3.19,5.09.05.07.08.07.09.02-.11-.85-.23-1.7-.36-2.54-.11-.74-.25-1.59-.42-2.54-.03-.13.12-.19.47-.16.35,0,.54.07.57.22.02.09.06.27.11.54.06.26.12.58.19.94.07.36.15.76.23,1.19.08.43.15.87.23,1.31.18,1.04.36,2.17.53,3.41,0,.07.02.15.07.26.81,2,1.61,4.01,2.42,6.01.02.05.04.09.06.14ZM37.41,49.38h-2.52c-.09,0-.15.05-.16.16-.45,4.56-.9,9.11-1.35,13.67-.01.13.06.2.21.2h3.28c.66,0,1.17-.14,1.52-.42.35-.28.52-.73.52-1.33,0-3.53.02-7.07.03-10.6,0-.59-.13-1.02-.39-1.28-.26-.26-.64-.39-1.14-.39ZM37.53,61.59c0,.23-.07.42-.2.56-.13.15-.31.22-.55.22h-1.77c-.11,0-.15-.06-.14-.18.29-3.9.58-7.79.87-11.69,0-.08.05-.12.12-.12h1.41c.19,0,.33.06.42.19.09.13.13.29.13.47-.1,3.51-.19,7.02-.29,10.54ZM47.54,61.67c.09.61,0,1.05-.3,1.32-.3.28-.78.41-1.44.41h-1.5c-.66,0-1.17-.13-1.53-.39-.35-.26-.54-.69-.58-1.28-.02-.33-.04-.66-.06-.99,0-.04.05-.09.14-.15.1-.06.27-.09.52-.09.44,0,.67.08.68.24.03.33.05.66.08.99.02.19.09.34.22.46.13.12.33.18.58.18h1.16c.24,0,.41-.07.52-.22.1-.15.14-.33.11-.54-.11-.87-.22-1.74-.33-2.6-.04-.34-.18-.66-.4-.98-.22-.32-.49-.63-.79-.95-.31-.32-.63-.63-.96-.93-.33-.3-.64-.61-.93-.93-.29-.32-.52-.63-.71-.95-.19-.32-.29-.64-.31-.98l-.12-2.18c-.03-.61.07-1.05.31-1.32.24-.27.61-.41,1.11-.41h1.14c.5,0,.9.13,1.19.39.3.26.49.69.58,1.28.05.33.1.66.15.99.02.15-.16.22-.54.22-.17,0-.32-.03-.43-.08-.11-.05-.17-.1-.17-.14-.04-.33-.08-.66-.13-.99-.02-.19-.09-.34-.19-.46-.11-.12-.26-.18-.46-.18h-.93c-.19,0-.33.07-.41.22-.08.15-.12.33-.1.54.05.57.09,1.13.14,1.7.03.38.14.72.33,1.02.19.3.43.59.72.88.29.28.6.57.94.85.34.28.67.59.98.93.32.34.6.71.84,1.12.24.41.4.88.48,1.4l.39,2.6ZM32.01,49.5c-.75,4.6-1.5,9.19-2.25,13.79,0,.05-.07.1-.19.15-.12.05-.3.07-.54.07-.25,0-.41-.03-.51-.08-.09-.05-.14-.11-.17-.16,0-.01-.03-.23-.08-.66-.06-.42-.13-.95-.2-1.57-.07-.63-.14-1.3-.21-2.03-.06-.73-.11-1.4-.16-2.02-.05-.62-.08-1.14-.1-1.55-.02-.42-.03-.63-.03-.64,0-.04-.01-.06-.02-.07-.01,0-.02.02-.04.07-.67,2.83-1.33,5.66-2,8.5,0,.04-.08.09-.22.14-.14.05-.32.08-.55.08-.22,0-.38-.02-.5-.07-.12-.05-.17-.1-.15-.17,1.19-4.58,2.39-9.16,3.58-13.75.03-.11.09-.17.18-.2.09-.03.23-.04.42-.04.35,0,.53.05.56.16,0,1.55.04,2.94.11,4.18.03.53.06,1.04.1,1.54.04.5.07.95.1,1.35.03.4.06.72.09.97.03.25.04.38.04.39,0,.04.01.07.02.1,0,.03.02-.01.04-.12.52-2.79,1.04-5.58,1.56-8.38.03-.13.22-.2.58-.2.37,0,.55.07.52.22ZM20.31,49.64c-1.94,4.54-3.88,9.08-5.82,13.62-.02.05-.1.11-.24.16-.14.05-.32.08-.56.08-.23,0-.4-.03-.52-.08-.11-.05-.16-.1-.14-.14,1.6-3.55,3.21-7.09,4.81-10.64.02-.05.04-.09.04-.1,0-.01-.02,0-.05.04-.84,1.2-1.62,2.27-2.31,3.23-.3.4-.59.8-.88,1.2-.29.4-.56.75-.79,1.07-.24.32-.43.57-.58.77-.15.2-.23.3-.24.31-.06.07-.15.13-.28.17-.12.05-.31.07-.55.07s-.41-.02-.49-.07c-.08-.05-.12-.1-.12-.17,0-.01.03-.12.07-.31.04-.19.11-.45.19-.77.08-.32.17-.67.28-1.07.11-.4.21-.8.32-1.2.27-.96.57-2.03.93-3.23.02-.05,0-.03-.05.06-1.95,3.55-3.89,7.09-5.84,10.64-.02.04-.12.09-.29.14-.17.05-.38.08-.62.08-.23,0-.39-.03-.47-.08-.09-.05-.11-.11-.08-.16,2.61-4.54,5.22-9.08,7.83-13.62.06-.11.19-.2.4-.26.2-.07.41-.1.63-.1.23,0,.41.03.53.09.12.06.16.13.13.21-.71,2.31-1.35,4.63-1.89,6.94,1.76-2.31,3.44-4.63,5.04-6.94.06-.08.18-.15.35-.21.17-.06.38-.09.61-.09.23,0,.41.03.54.1.13.07.17.15.12.26ZM55.5,62.88c.06.22.08.36.05.42-.03.07-.07.1-.13.1-1.36,0-2.71-.01-4.07-.02-.12,0-.2-.05-.22-.14-.96-4.56-1.91-9.12-2.87-13.68-.03-.12.01-.18.12-.18h3.03c.06,0,.12.05.18.14.06.09.11.21.15.34.03.12.05.24.06.35,0,.12-.02.17-.08.17h-2.08c-.07,0-.1.04-.08.12.4,1.7.79,3.39,1.19,5.09.02.08.06.12.13.12h2.12s.09.03.16.09c.07.06.13.21.19.44.06.23.08.37.05.43-.03.06-.07.09-.13.09h-2.11c-.1,0-.13.05-.1.16.41,1.77.83,3.54,1.24,5.31.02.09.08.14.19.14h2.61c.08,0,.14.03.21.08.06.05.12.2.19.42ZM21.93,63.71c.07.09.08.23.03.41-.06.19-.15.33-.29.41-.14.09-.24.13-.3.13h-4.96c-.06,0-.13-.04-.21-.13-.08-.09-.08-.23,0-.41.07-.19.18-.33.31-.41.13-.09.24-.13.32-.13h1.55c.24,0,.35-.09.39-.22,1.48-4.2,2.95-8.39,4.43-12.59.05-.15.07-.25.05-.31-.02-.06-.1-.09-.23-.09h-1.21s-.1-.04-.15-.13c-.05-.09-.04-.23.04-.41.07-.19.17-.33.28-.41.11-.09.19-.13.25-.13h.24c.27,0,.5-.04.69-.11.2-.07.36-.18.5-.31.13-.14.25-.3.34-.48.1-.19.18-.4.26-.63.03-.09.09-.15.18-.17.09-.02.54-.03.73-.03.35,0,.5.07.45.22.03,0-5.38,15.58-5.42,15.59-.04.13,0,.22.24.22h1.24c.08,0,.15.04.23.13ZM38.53,18.63l.04-3.61s-.02-.04-.05-.04l-1.14.37c-.05.02-.1-.03-.09-.08l1.36-5.09c.03-.1.18-.08.18.03l-.08,3.62s.03.05.05.03l1.17-.53c.05-.02.11.02.09.08l-1.36,5.25c-.03.1-.18.08-.18-.02ZM50.88,39.51l3.11,1.84s.05,0,.05-.02l.25-1.17c.01-.05.08-.07.11-.03l3.73,3.72c.08.08-.02.2-.11.14l-3.1-1.88s-.05,0-.06.03l-.12,1.28c0,.06-.07.08-.11.04l-3.87-3.8c-.08-.07.02-.2.11-.14ZM23.79,41.72l.89.8s.02.1-.03.11l-5.09,1.37c-.1.03-.16-.11-.07-.17l3.18-1.74s.03-.05,0-.06l-1.05-.75s-.03-.1.02-.12l5.22-1.45c.1-.03.16.11.07.16l-3.15,1.77s-.03.04,0,.06ZM40.77,33.18l.73.92c-.05.04-.1.09-.15.12-.03.02-.05.04-.08.06-.03.02-.06.03-.08.05l-.32-.49-.32-.49h0s.04-.02.06-.04.04-.02.06-.04c.02-.01.04-.03.06-.05.02-.02.04-.03.05-.05h0ZM35.35,29.58l-1.13-.31c.02-.06.03-.13.05-.19,0,0,0-.01,0-.02.02-.06.04-.11.06-.17l1.1.41s-.02.05-.03.07-.02.04-.03.07c0,.02-.01.05-.02.07,0,.02,0,.05-.01.07ZM40.17,33.56l.52,1.05h0s-.02,0-.03.01c-.05.03-.1.05-.15.07-.06.03-.12.05-.19.07h0l-.43-1.09h0s.05-.02.07-.02.05-.01.07-.02c.05-.02.08-.05.13-.07ZM45.72,27.6h0s0,0,0,0v.02s0,0,0,0c.02-.15.06-.29.12-.43h0s0,.02,0,.02l-.28-.35-.07-.09.17-.26h0c.05.03.1.06.15.08.08.04.16.09.24.13.23.14.45.28.66.42-.25.31-.33.72-.25,1.09.04.18.12.36.25.51.11.14.24.25.39.33.07.04.15.07.23.1.4.12.84.06,1.19-.22,0,0,0,0,0,0,.04-.03.07-.06.11-.1.08.08.16.17.24.25.08.09.17.18.25.27-.05.05-.1.1-.16.14-.06.05-.12.09-.18.13h.01s0,0,0,0h0v.29s.02.28.02.28l-.47.17h0l-.06-.08-.29-.37h.02c-.07,0-.15.01-.22.01-.07,0-.15,0-.22,0h.02s-.31.48-.31.48h0l-.07-.02-.41-.11-.02-.56h0s.02,0,.02,0c-.03-.01-.05-.03-.08-.05-.1-.06-.2-.12-.29-.19h0s-.53.21-.53.21l-.31-.39.31-.47h0c-.07-.12-.12-.26-.15-.4v.02s-.55-.15-.55-.15l-.02-.5.53-.2ZM42.52,32.96l-.99-.63s.03-.04.04-.06c.02-.02.03-.04.04-.06,0-.01.01-.03.02-.04.01-.03.03-.06.04-.09l1.04.54c-.03.06-.06.12-.09.18,0,.01-.02.03-.03.04-.03.04-.05.08-.08.12h0ZM37.55,26.25l-.05-.21c.06-.02.13-.04.19-.05.03,0,.07-.01.1-.02s.07,0,.1-.01l.19,1.16h0s-.04,0-.07,0c-.03,0-.05,0-.08,0,0,0,0,0,0,0-.05-.03-.11-.06-.17-.08l-.21-.8ZM33.52,27.25l-.42.07.14.37.14.37s0,0,0,0c0,0,0,0,0,0l-.75.26.11.19.3.49s0,0,0,.01l-.69.38h0l.52.59s0,0,0,.01c0,0,0,0,0,0l-.61.5.61.5s0,.01,0,.02l-.52.59.69.38s0,0,0,.01l-.41.68.75.26s0,0,0,.01l-.28.74.78.12s0,0,0,.01l-.13.65-.02.13h.78s0,0,.01,0v.78s-.01,0-.01,0l.77-.15s0,0,0,0c0,0,0,0,0,0l.12.78.74-.28s0,0,.01,0l.12.35h0c.16,0,.31,0,.47,0,.11,0,.22,0,.33,0h.01s0,0,.01,0h0c.23,0,.48,0,.72,0,.37,0,.75,0,1.13,0s.75,0,1.12,0h0s0,0,0,0c0,0,0,0,.01,0h.01c.13,0,.25,0,.38,0,.12,0,.24,0,.36,0,.02,0,.04,0,.07,0l.12-.35s0,0,.01,0l.16.06.58.22h0l.1-.66.02-.12s0,0,0,0c0,0,0,0,0,0l.65.13.13.02h0v-.78s0,0,0-.01h.78s-.15-.76-.15-.76c0,0,0,0,0-.01l.78-.12-.28-.74s0,0,0-.01l.75-.26-.41-.68s0,0,0-.01l.69-.38-.52-.59s0-.01,0-.02l.61-.5h0l-.61-.5s0-.01,0-.01l.29-.33.23-.26-.69-.38s0,0,0-.01l.41-.68-.75-.26s0,0,0,0c0,0,0,0,0,0l.14-.37.14-.37-.36-.06-.42-.07s0,0,0-.01l.15-.77h-.78s0,0-.01,0v-.78s.01,0,.01,0l-.77.15s0,0-.01,0l-.03-.22-.03-.22c-.23-.03-.47-.06-.71-.09h0l-.08.03s0,0-.01,0v-.02s-.01-.02-.01-.02c-.08,0-.17-.01-.25-.02-.61-.05-1.26-.08-1.97-.08-1.32,0-2.46.1-3.45.27l-.03.18-.03.18s0,0-.01,0l-.77-.15h0v.78s0,0,0,.01c0,0,0,0,0,0h-.78s.15.76.15.76c0,0,0,0,0,.01l-.36.06ZM38.64,25.38c.09,0,.17,0,.26,0,.17,0,.34.03.51.05.42.06.82.18,1.2.34.46.19.88.45,1.25.76.13.1.25.21.36.33.23.23.44.48.62.75.05.07.09.14.13.21.13.21.24.43.34.66.26.61.4,1.27.4,1.97s-.14,1.37-.4,1.97c-.1.23-.21.45-.34.66-.04.07-.09.14-.13.21-.91,1.35-2.46,2.24-4.21,2.24-1.49,0-2.83-.64-3.76-1.67-.82-.9-1.32-2.1-1.32-3.41,0-2.8,2.28-5.08,5.08-5.08ZM36.06,27.25l-.28-.35c.05-.04.1-.09.15-.12.03-.02.05-.04.08-.06.03-.02.06-.03.08-.05l.27.41c-.11.05-.21.11-.31.18ZM35.51,27.91l-.41-.34s.04-.05.06-.08c.02-.03.04-.05.06-.08.02-.03.05-.05.07-.07.02-.02.05-.05.07-.07h0l.33.33s-.03.04-.04.06c-.05.08-.11.16-.15.25ZM36.87,26.94l-.28-.55c.06-.03.12-.06.18-.09.06-.03.12-.05.19-.07l.28.71c-.05,0-.1,0-.16,0-.04,0-.07,0-.11,0s-.07,0-.1,0ZM49.12,29.39h0s0,0,.01,0h0,0-.02s0,0,0,0ZM35.34,28.77l-.77-.4c.03-.06.06-.12.09-.18.02-.03.03-.06.05-.08.02-.03.04-.05.05-.08l.59.37c-.01.09-.02.17-.02.27,0,.04,0,.07,0,.1h0s0,0,0,0ZM49.05,30.06h.28s.28-.02.28-.02l.21.58c.06,0,.12,0,.17.02s.11.01.17.02v.57h0c-.2-.03-.4-.05-.6-.05-.34,0-.68.03-1.02.11-.05.03-.08.09-.09.16,0,.02,0,.03,0,.05,0,.06.01.11.04.17l.89,1.84c.07,0,.14,0,.2,0s.13,0,.2.02c.13.02.26.05.39.1v.4c-.07.07-.14.14-.21.2-.07.07-.14.13-.2.19-.1-.02-.2-.03-.3-.03-.1,0-.2.03-.3.06-.39.14-.64.49-.69.87-.21.1-.42.19-.65.27-.08.03-.15.05-.23.07-.02-.17-.02-.35,0-.52.02-.16.07-.31.13-.46.14-.33.36-.61.65-.82l-.49-1.98c-.02-.1-.08-.17-.15-.22-.05-.03-.1-.05-.14-.04-.41.21-.78.47-1.09.78-.09.09-.18.19-.27.29-.17.2-.31.41-.44.64-.11.19-.2.39-.28.6-.06.16-.11.33-.16.5-.07.29-.11.59-.12.89,0,0,0,.01,0,.02,0,.12,0,.24,0,.37,0,.1.02.2.03.3-.15,0-.32.02-.48.02-.05,0-.11,0-.16,0l-.51-.15-.02-.56.58-.21c0-.1.02-.19.03-.29s.03-.19.04-.28l-.25-.17-.25-.17.16-.54.61-.02c.07-.18.15-.35.24-.52l-.38-.49.31-.46.59.17c.12-.15.25-.29.39-.42l-.21-.58.18-.14.26-.2h0l.15.1.36.25c.16-.1.33-.19.5-.28l-.02-.61.53-.19.38.48c.11-.03.22-.05.34-.07.08-.01.15-.03.23-.04l.12-.42.05-.17h0ZM30.64,28.35l.35.63.54-.47.65.3h0l.16-.7.35-.07.35-.07-.28-.66.49-.52-.62-.37.03-.25s-.09.04-.14.06c-.2.09-.4.18-.58.28-.08.04-.15.08-.22.12.12.11.19.28.19.45,0,.02,0,.05,0,.08,0,0,0,.02,0,.02-.07.3-.36.5-.66.45-.08-.01-.16-.05-.22-.09-.02-.01-.04-.03-.06-.05-.06-.05-.11-.11-.14-.18-.01-.02-.02-.05-.03-.07-.27.2-.53.41-.77.62l-.07.55.65-.06h.06ZM32.75,27.31h0s0,0,0,0c0,0,0,0,0,0ZM32.62,26.42h0s0,.02,0,.02h0s0-.01-.01-.02h0ZM32.34,28.1h0s0,.01,0,.01h0s.01,0,.02-.01ZM31.55,28.5h0s-.01,0-.01,0h-.02s.03,0,.04,0ZM30.66,28.35h-.02s-.01-.02-.01-.02c.01,0,.02.01.04.02ZM23.88,33.65c.09.07.21.16.34.26.11.08.22.17.35.27.13.1.26.2.41.31,1.3,1,3.22,2.46,4.36,3.29.38.28.67.48.82.57l.08.05c.41.25,1.06.65,2.12,1.02.15.05.31.11.48.16.25.08.52.15.82.22.2.05.4.09.62.13,1.18.23,2.67.39,4.53.39,3.05,0,5.08-.43,6.44-.9.08-.03.15-.05.22-.08.14-.05.28-.11.41-.16.06-.03.13-.05.19-.08.12-.05.23-.11.34-.16.42-.21.74-.4.97-.54l.08-.05c.15-.09.44-.3.82-.57,1.01-.74,2.64-1.98,3.91-2.94.47-.36.9-.69,1.21-.93.02-.02.04-.03.06-.04,0,0,.01,0,.02-.01.04-.03.07-.06.11-.08,0,0,.01,0,.02-.01.03-.03.07-.05.1-.08.06-.05.12-.09.16-.12,0,0,.01-.01.02-.02h0v-.21h0v-2.38c-.22-.25-.46-.52-.69-.81-.72-.85-1.5-1.82-2.27-2.76-.19-.24-.38-.47-.57-.71-.06-.07-.11-.14-.17-.21-.12-.14-.23-.28-.34-.42-.14-.17-.27-.33-.41-.49h0s0,0,0,0c-.05-.06-.1-.12-.14-.17-.01-.01-.02-.03-.03-.04-.04-.05-.08-.1-.12-.15,0,0-.02-.02-.02-.03-.01-.01-.02-.02-.03-.04-.09-.11-.18-.21-.26-.31,0,0,0,0-.01-.01-.04-.05-.09-.1-.13-.15,0,0-.01-.01-.02-.02-.05-.06-.1-.12-.16-.18-.08-.1-.16-.19-.24-.27,0,0,0,0,0,0-.04-.05-.08-.09-.12-.13,0,0,0,0,0,0-.29-.32-.52-.54-.67-.63l-.08-.05c-.09-.05-.19-.12-.3-.18-.07-.04-.15-.09-.24-.14-.04-.02-.09-.05-.13-.07-.32-.17-.73-.36-1.23-.55-.14-.05-.29-.11-.45-.16-.38-.12-.81-.24-1.3-.35-.04,0-.09-.02-.13-.03-.48-.1-1.02-.19-1.62-.27-.03,0-.05,0-.08,0-.89-.1-1.91-.17-3.08-.17-2.88,0-4.86.38-6.21.83-.16.05-.31.11-.45.16-.5.19-.9.38-1.23.55-.28.15-.5.28-.67.39l-.08.05c-.11.07-.27.21-.46.41-.03.03-.06.06-.09.09-.06.06-.12.13-.18.2-.03.04-.06.07-.1.11-.01.01-.02.03-.03.04,0,0,0,0,0,0-.04.04-.08.09-.12.13,0,0,0,0,0,0-.01.02-.03.03-.04.05-.15.18-.32.37-.49.57,0,0-.01.01-.02.02-.04.05-.08.1-.12.15,0,0-.01.02-.02.03-.01.02-.03.03-.04.05-.03.04-.06.07-.09.11,0,0,0,0-.01.01-.1.12-.2.24-.3.36,0,0-.01.02-.02.02-.04.05-.09.1-.13.16-.01.01-.02.03-.04.04-.04.05-.07.09-.11.14-.01.02-.03.04-.04.05-.04.05-.07.09-.11.14-.01.02-.03.03-.04.05-.28.34-.56.69-.83,1.03-.76.94-1.55,1.91-2.27,2.76-.24.28-.47.55-.69.81v2.6s.03.03.05.04c.03.02.06.04.09.07ZM52.54,31.34s.08.02.12.03c.04.01.08.03.11.05h0c.1.05.19.12.26.2.03.04.06.08.08.12.05.08.08.18.1.27,0,.05.01.1.01.15,0,.02,0,.04,0,.05-.01.17-.07.32-.16.45,0,0,0,0,0,0-.06.08-.13.14-.2.19-.1.06-.21.11-.33.13v-1.65ZM51.98,31.44s.04-.02.06-.03c.03-.02.07-.03.1-.04.04-.01.08-.02.12-.03v1.65s-.1-.02-.14-.04c-.05-.02-.09-.04-.13-.06-.25-.14-.42-.42-.42-.73s.17-.58.42-.73ZM26.82,30.26l.03-.03.06-.06c.14-.15.28-.3.42-.45.14-.15.27-.3.41-.45,2.12-2.35,4.32-4.78,11.07-4.78.21,0,.42,0,.62,0,.61.01,1.17.05,1.71.1.36.04.69.08,1.02.13.98.15,1.82.38,2.56.65.37.14.72.29,1.04.45.65.32,1.21.69,1.72,1.09.34.26.65.54.95.82.3.28.58.57.85.87.07.07.14.15.2.22.13.15.27.29.4.44.14.15.27.3.41.45.14.15.28.3.42.45l.06.06.03.03v4.01l-.09.09c-.11.11-.21.21-.31.31-.1.1-.21.2-.31.29-.1.09-.2.17-.3.25-.08.06-.16.12-.24.18-.1.07-.2.14-.3.2-.07.05-.14.09-.21.13-.11.06-.22.12-.33.17-.08.04-.16.08-.24.11-.11.05-.22.09-.33.13-.08.03-.16.06-.24.08-.33.1-.67.18-1.05.25-.09.02-.19.03-.29.04-.59.08-1.25.13-2.02.15-.13,0-.26,0-.39.01-.67.01-1.41.02-2.24.01-.33,0-.68,0-1.05,0-.16,0-.32,0-.49,0-.99,0-2.11,0-3.11,0-.17,0-.33,0-.48,0-.13,0-.27,0-.4,0-.39,0-.76,0-1.12,0-1.6,0-2.84-.02-3.87-.14-.47-.05-.89-.13-1.28-.22-.08-.02-.15-.04-.23-.06-.15-.04-.3-.09-.44-.15-.07-.03-.14-.05-.21-.08-.83-.35-1.55-.88-2.32-1.68l-.09-.09v-4.01ZM25.24,31.57h0v-.23s.1.02.14.04c.32.12.55.43.55.79s-.23.67-.55.79c-.05.02-.09.03-.14.04v-1.42ZM24.26,32.16s0-.08.01-.12c0-.03.01-.07.02-.1h0s.01-.05.02-.08c.04-.11.11-.21.19-.29h0s.06-.06.1-.08c0,0,0,0,0,0,.03-.02.07-.05.1-.07.01,0,.02-.01.04-.02.03-.01.05-.03.08-.04.04-.02.09-.03.13-.04v1.65c-.19-.03-.35-.13-.48-.26-.01-.02-.03-.03-.04-.05-.01-.02-.03-.04-.04-.05-.01-.02-.03-.04-.04-.06-.01-.03-.03-.05-.04-.08,0-.01-.01-.02-.02-.04-.01-.04-.02-.08-.03-.12,0,0,0-.02,0-.03,0-.04-.01-.09-.01-.13,0,0,0,0,0,0,0,0,0,0,0,0ZM41.2,32.8s.06-.08.09-.12h0l.9.75s-.04.05-.06.08c-.02.03-.04.05-.06.08-.02.02-.05.05-.07.07-.02.02-.05.05-.07.07h0l-.84-.82h0s.08-.06.11-.1ZM42.06,30.14c0-.05-.02-.1-.03-.15l1.16-.17h0c0,.07.02.13.03.2,0,.03,0,.07,0,.1,0,.03,0,.07,0,.1l-1.17.07h0c0-.05,0-.1,0-.15ZM42.95,32.1l-1.1-.41s.03-.06.04-.09c0-.02.02-.03.02-.05.02-.05.02-.1.03-.14h0l.57.16.57.16s0,.03-.01.05c0,.03-.02.06-.03.1,0,.02,0,.03-.01.05-.02.06-.05.12-.07.19h0s0,0,0,0ZM38.5,27.08l-.05-1.17c.07,0,.13,0,.2,0s.13,0,.2,0l-.05,1.17s-.1-.01-.15-.01-.1.01-.15.01ZM43.19,31.17l-1.16-.17s.02-.09.03-.15c0-.05,0-.1,0-.15h0l1.17.07s0,.07,0,.1c0,.03,0,.07,0,.1,0,.07-.02.13-.03.2h0ZM39.73,34.71l.06.23c-.06.02-.13.04-.19.05-.03,0-.07.01-.1.02-.03,0-.07,0-.1.01l-.19-1.16s0,0,0,0c.04,0,.09,0,.13-.01,0,0,0,0,0,0,.05-.01.09-.03.14-.05h0l.23.9ZM37.08,30.42c.96,0,1.75-.78,1.75-1.75,0-.28-.07-.54-.18-.77,0,0,0,0,0,0,.18,0,.35.02.52.05.17.03.33.08.48.15.23.1.44.23.63.38.13.1.24.22.35.35.37.44.59,1.01.59,1.63,0,1.41-1.15,2.56-2.56,2.56-.09,0-.18,0-.26-.01-.17-.02-.34-.05-.5-.1-.08-.02-.16-.05-.23-.09-.23-.1-.44-.23-.63-.38-.06-.05-.12-.11-.18-.17-.23-.23-.42-.51-.55-.81-.13-.31-.2-.64-.2-1,0-.06,0-.11,0-.17s0-.11.02-.17c.03.02.07.05.11.07.26.15.55.23.86.23ZM35.24,30.93s.01.05.02.07l-1.16.17c0-.07-.02-.13-.03-.2,0-.07,0-.13-.01-.2l1.17-.07s0,.05,0,.07c0,.01,0,.02,0,.04,0,.01,0,.02,0,.04,0,.03,0,.05.01.07ZM38.82,34.5l.03.59c-.07,0-.13,0-.2,0-.03,0-.07,0-.1,0-.03,0-.07,0-.1,0l.03-.59.03-.59s.1.01.15.01.1-.01.15-.01l.03.59ZM35.23,30.29l-1.17-.07s0-.07,0-.1,0-.07,0-.1,0-.07.01-.1c0-.03.01-.06.02-.1l1.16.17s-.02.09-.03.15c0,.03,0,.05,0,.07,0,.02,0,.05,0,.07ZM27.79,34.34c-.11-.1-.22-.21-.34-.33v-.81l2.68-1.69c.09-.05.17-.12.21-.2.03-.05.05-.09.06-.14,0-.03.01-.07.01-.1,0-.05-.02-.1-.04-.15,0-.01-.02-.02-.03-.03-.01-.01-.02-.03-.04-.04,0,0,0,0,0,0-.51-.61-1.07-1.15-1.68-1.63.21-.23.42-.45.64-.67l.22-.05v.31s0,.31,0,.31c0,0,0,0,0,0l.61-.09-.04.62s0,0,0,0l.31-.02.31-.02-.08.61s0,0,0,0c0,0,0,0,0,0h.61s-.13.6-.13.6c0,0,0,0,0,0l.62.04-.17.6s0,0,0,0l.61.08-.21.58s0,0,0,0l.6.13-.25.56s0,0,0,0l.59.17-.29.54s0,0,0,.01l.58.21-.32.52s0,0,0,.01l.56.25-.1.14-.26.36s0,0,0,0l.54.29-.39.47s0,0,0,.01l.37.23h0c-.09,0-.17,0-.25,0-.17,0-.33,0-.48-.02-.08,0-.15,0-.23,0h0c-.2-1.32-.65-2.62-1.37-3.82,0,0,0,0,0,0,0,0,0,0,0,0,0-.02-.02-.03-.03-.05,0-.01-.02-.03-.02-.04-.13-.16-.42-.16-.63.03l-2.8,2.19ZM60.98,45.75H16.39l6.33-11.07s.05.05.08.07c.13.1.27.21.42.33l-5.74,10.03h42.38l-5.66-9.9c.18-.14.36-.27.51-.39l6.25,10.93ZM31.2,21.14c-.39.16-.73.33-1.01.48l8.49-14.84,8.39,14.66c-.28-.14-.61-.28-.98-.42l-7.41-12.95-7.48,13.08Z"/>
  </g>
</svg>