<?xml version="1.0" encoding="UTF-8"?>
<svg id="Layer_1" xmlns="http://www.w3.org/2000/svg" version="1.1" viewBox="0 0 30 30">
  <!-- Generator: Adobe Illustrator 30.1.0, SVG Export Plug-In . SVG Version: 2.1.1 Build 136)  -->
  <defs>
    <style>
      .st0 {
        fill: none;
        isolation: isolate;
        opacity: .5;
        stroke: #4c99d3;
        stroke-miterlimit: 10;
        stroke-width: .2px;
      }
    </style>
  </defs>
  <path class="st0" d="M27.7,17.3h0c0-.4.1-.8.2-1.3l1.5-.6v-1.5l-1.6-.5c0-.5-.2-1-.3-1.5l1.3-1-.5-1.4h-1.6c-.2-.4-.5-.9-.7-1.3l.9-1.4-.9-1.2-1.6.6c-.4-.4-.7-.7-1.1-1.1l.5-1.6-1.2-.8-1.3,1c-.5-.2-.9-.5-1.4-.7v-1.7l-1.5-.4-.9,1.4c-.5,0-1-.2-1.5-.2l-.6-1.5h-1.5l-.5,1.6c-.5,0-1,.2-1.5.3l-1-1.3-1.4.5v1.6c-.4.2-.9.5-1.3.7l-1.4-.9-1.2.9.6,1.6-1.1,1.1-1.6-.5-.8,1.2,1,1.3c-.2.5-.5.9-.7,1.4h-1.7l-.4,1.5,1.4.9c0,.5-.2,1-.2,1.5l-1.5.6v1.5l1.6.5c0,.5.2,1,.3,1.5l-1.3,1,.5,1.4h1.6c.2.4.5.9.7,1.3l-.9,1.4.9,1.2,1.6-.6c.3.3.6.6.9.9h0l.2.2-.5,1.6,1.2.8,1.3-1c.5.2.9.5,1.4.7v1.7l1.5.4.9-1.4c.5,0,1,.2,1.5.2l.6,1.5h1.5l.5-1.6c.5,0,1-.2,1.5-.3l1,1.3,1.4-.5v-1.6c.4-.2.9-.5,1.3-.7l1.4.9,1.2-.9-.6-1.6,1.1-1.1,1.6.5.8-1.2-1-1.3c.2-.5.5-.9.7-1.4h1.7l.4-1.5-1.4-.9s0-.2,0-.2Z"/>
  <path class="st0" d="M6.9,22.3c-1-1.1-1.7-2.3-2.2-3.7-1.9-5.3.5-11.2,5.4-13.6.3,0,.7.2.8.7l1.3,5.1c-1.7,1.3-2.6,3.7-1.8,5.8,0,.4.4.8.6,1.1l-3,4.3c-.3.4-.8.6-1.1.3h0ZM18.8,25.3c-3.4,1.3-7,.7-9.8-1.2-.2-.2,0-.7.2-1l3.8-3.7c1.2.5,2.5.6,3.8.2,1.3-.5,2.2-1.3,2.8-2.5l5.3.4c.5,0,.8.3.8.7-1,3.2-3.4,6-6.7,7.1h0ZM26.1,15.4c0,.4-.5.7-1,.5l-5.1-1.4c0-.4,0-.8-.3-1.2-.8-2.1-2.9-3.5-5.1-3.3l-2.3-4.7c-.2-.4,0-.9.2-1,5.4-1.3,11,1.6,12.9,6.9.5,1.4.7,2.8.7,4.2h0Z"/>
  <circle class="st0" cx="15" cy="15" r="2.9"/>
</svg>