<?xml version="1.0" encoding="UTF-8"?>
<svg id="Layer_1" xmlns="http://www.w3.org/2000/svg" version="1.1" viewBox="0 0 35 35">
  <!-- Generator: Adobe Illustrator 30.1.0, SVG Export Plug-In . SVG Version: 2.1.1 Build 136)  -->
  <defs>
    <style>
      .st0 {
        fill: #56418d;
      }
    </style>
  </defs>
  <path class="st0" d="M1.8,9h0s0,0,0,0c0,0,0,0,0,0ZM1.4,6.6h0s0,0,0,0h0ZM.7,11.1h0s0,0,0,0c0,0,0,0,0,0ZM32.3,26l-.8-2s0,0,0,0l2-.7-1.1-1.8s0,0,0,0l1.9-1-1.4-1.6s0,0,0,0l1.6-1.3-1.6-1.3s0,0,0,0l1.4-1.6-1.9-1s0,0,0,0l1.1-1.8-2-.7s0,0,0,0l.8-2-2.1-.3s0,0,0,0l.4-2.1h-2.1s0,0,0,0v-2.1s-2,.4-2,.4c0,0,0,0,0,0l-.3-2.1-2,.8s0,0,0,0l-.7-2-1.8,1.1s0,0,0,0l-1-1.9-1.6,1.4s0,0,0,0l-1.3-1.6-1.3,1.6s0,0,0,0l-1.6-1.4-1,1.9s0,0,0,0l-1.8-1.1-.7,2s0,0,0,0l-2-.8-.3,2.1s0,0,0,0l-2.1-.4v2.1s0,0,0,0h-2.1s.4,2,.4,2c0,0,0,0,0,0l-2.1.3.8,2s0,0,0,0l-2,.7,1.1,1.8s0,0,0,0l-1.9,1,1.4,1.6s0,0,0,0l-1.6,1.3,1.6,1.3s0,0,0,0l-1.4,1.6,1.9,1s0,0,0,0l-1.1,1.8,2,.7s0,0,0,0l-.8,2,2.1.3s0,0,0,0l-.4,2.1h2.1s0,0,0,0v2.1s2-.4,2-.4c0,0,0,0,0,0l.3,2.1,2-.8s0,0,0,0l.7,2,1.8-1.1s0,0,0,0l1,1.9,1.6-1.4s0,0,0,0l1.3,1.6,1.3-1.6s0,0,0,0l1.6,1.4,1-1.9s0,0,0,0l1.8,1.1.7-2s0,0,0,0l2,.8.3-2.1s0,0,0,0l2.1.4v-2.1s0,0,0,0h2.1s-.4-2-.4-2c0,0,0,0,0,0l2.1-.3ZM17.6,31c-7.5,0-13.6-6.1-13.6-13.6S10.1,3.8,17.6,3.8s13.6,6.1,13.6,13.6-6.1,13.6-13.6,13.6ZM8.7,12.9l-2.1-1.1c0-.2.2-.3.2-.5,0-.2.2-.3.3-.4l1.6,1c0,.2,0,.5,0,.7s0,.2,0,.3ZM26.5,20l3,.8c0,.2,0,.3-.1.5,0,.2-.1.3-.2.5l-3-1.1c0-.1.1-.2.2-.4,0-.1,0-.3,0-.4ZM26.8,18.1l3.1.2c0,.2,0,.4,0,.5,0,.2,0,.4,0,.5l-3.1-.5c0-.1,0-.3,0-.4,0-.1,0-.3,0-.4ZM25.8,21.8l2.8,1.5c0,.2-.2.3-.2.5,0,.2-.2.3-.3.4l-2.7-1.7c0-.1.2-.2.2-.3,0-.1.1-.2.2-.4ZM8.4,18.5c0,.1,0,.3,0,.4l-3.1.5c0-.2,0-.3,0-.5s0-.4,0-.5l3.1-.2c0,.1,0,.3,0,.4ZM6,13.2l3,1.1c0,.1-.1.2-.2.4,0,.1,0,.3,0,.4l-3-.8c0-.2,0-.3.1-.5,0-.2.1-.3.2-.5ZM8.8,8.9l.9.9c-.2.3-.4.5-.5.8l-1.1-.9c.1-.1.2-.3.3-.4.1-.1.3-.3.4-.4ZM5.4,15.7l3.1.5c0,.1,0,.3,0,.4,0,.1,0,.3,0,.4l-3.1-.2c0-.2,0-.4,0-.5s0-.4,0-.5ZM17.6,24.3c-3.8,0-6.9-3.1-6.9-6.9s0-.6,0-.9c.7.5,1.6.8,2.6.8,2.6,0,4.7-2.1,4.7-4.7s-.2-1.5-.5-2.1c0,0,0,0,0,0,3.8,0,6.9,3.1,6.9,6.9s-3.1,6.9-6.9,6.9ZM24.7,23.4l2.4,2c-.1.1-.2.3-.3.4s-.3.3-.4.4l-2.2-2.2c0,0,.2-.2.3-.3,0-.1.2-.2.2-.3ZM11.5,8.3c-.3.1-.6.3-.8.5l-.8-.9c.1-.1.3-.2.4-.3.1-.1.3-.2.4-.3l.7,1.1ZM17.2,8.3v-3.1s.2,0,.4,0,.4,0,.5,0v3.1c-.3,0-.4,0-.5,0s-.3,0-.4,0ZM26.8,16.6c0-.1,0-.3,0-.4l3.1-.5c0,.2,0,.3,0,.5,0,.2,0,.4,0,.5l-3.1.2c0-.1,0-.3,0-.4ZM18,26.7v3.1s-.2,0-.4,0-.4,0-.5,0v-3.1c.3,0,.4,0,.5,0s.3,0,.4,0ZM15.2,8.3l-.7-2.7c.2,0,.3,0,.5-.1.2,0,.4,0,.5,0l.5,3.1c-.1,0-.3,0-.4,0,0,0,0,0,0,0-.1,0-.3-.2-.4-.2ZM23.3,24.7l2,2.5c-.1.1-.3.2-.4.3-.1.1-.3.2-.4.3l-1.7-2.6c.1,0,.2-.1.3-.2.1,0,.2-.2.3-.3ZM19.9,26.4l.8,3.1c-.2,0-.3,0-.5.1-.2,0-.4,0-.5,0l-.5-3.1c.1,0,.3,0,.4,0,.1,0,.2,0,.4-.1ZM12.8,7.9l-.7-1.5c.2,0,.3-.2.5-.2.2,0,.3-.1.5-.2l.8,1.9c-.1,0-.3,0-.4,0s-.4,0-.6,0ZM21.7,25.8l1.4,2.8c-.2,0-.3.2-.5.2-.2,0-.3.1-.5.2l-1.2-2.9c.1,0,.3,0,.4-.1.1,0,.2-.1.3-.2Z"/>
</svg>