<?xml version="1.0" encoding="UTF-8"?>
<svg id="Layer_1" xmlns="http://www.w3.org/2000/svg" version="1.1" viewBox="0 0 35 35">
  <!-- Generator: Adobe Illustrator 30.1.0, SVG Export Plug-In . SVG Version: 2.1.1 Build 136)  -->
  <defs>
    <style>
      .st0 {
        fill: #56418d;
      }
    </style>
  </defs>
  <path class="st0" d="M33.4,26.1h0ZM33.8,28.5h0ZM34.5,24h0ZM2.9,9.1l.8,2h0l-2,.7,1.1,1.8h0l-1.9,1,1.4,1.6h0l-1.6,1.3,1.6,1.3h0l-1.4,1.6,1.9,1h0l-1.1,1.8,2,.7h0l-.8,2,2.1.3h0l-.4,2.1h2.1v2.1l2-.4h0l.3,2.1,2-.8h0l.7,2,1.8-1.1h0l1,1.9,1.6-1.4h0l1.3,1.6,1.3-1.6h0l1.6,1.4,1-1.9h0l1.8,1.1.7-2h0l2,.8.3-2.1h0l2.1.4v-2.1h2.1l-.4-2h0l2.1-.3-.8-2h0l2-.7-1.1-1.8h0l1.9-1-1.4-1.6h0l1.6-1.3-1.6-1.3h0l1.4-1.6-1.9-1h0l1.1-1.8-2-.7h0l.8-2-2.1-.3h0l.4-2.1h-2.1v-2.1l-2,.4h0l-.3-2.1-2,.8h0l-.7-2-1.8,1.1h0l-1-1.9-1.6,1.4h0l-1.3-1.6-1.3,1.6h0l-1.6-1.4-1,1.9h0l-1.8-1.1-.7,2h0l-2-.8-.3,2.1h0l-2.1-.4v2.1h-2.1l.4,2h0s-2.1.3-2.1.3ZM17.6,4.1c7.5,0,13.6,6.1,13.6,13.6s-6.1,13.6-13.6,13.6S4,25.2,4,17.7s6.1-13.6,13.6-13.6ZM26.5,22.2l2.1,1.1c0,.2-.2.3-.2.5s-.2.3-.3.4l-1.6-1v-1ZM8.7,15.1l-3-.8c0-.2,0-.3.1-.5,0-.2.1-.3.2-.5l3,1.1c0,.1-.1.2-.2.4v.4h-.1ZM8.4,17l-3.1-.2v-1l3.1.5v.8h0ZM9.4,13.3l-2.8-1.5c0-.2.2-.3.2-.5s.2-.3.3-.4l2.7,1.7c0,.1-.2.2-.2.3s-.1.2-.2.4ZM26.8,16.6v-.4l3.1-.5v1l-3.1.2v-.4h0ZM29.2,21.9l-3-1.1c0-.1.1-.2.2-.4v-.4l3,.8c0,.2,0,.3,0,.5,0,.2,0,.3-.2.5h0ZM26.4,26.2l-.9-.9c.2-.3.4-.5.5-.8l1.1.9c-.1.1-.2.3-.3.4l-.4.4ZM29.8,19.4l-3.1-.5v-.8l3.1.2v1h0ZM17.6,10.8c3.8,0,6.9,3.1,6.9,6.9s0,.6,0,.9c-.7-.5-1.6-.8-2.6-.8-2.6,0-4.7,2.1-4.7,4.7s.2,1.5.5,2.1h0c-3.8,0-6.9-3.1-6.9-6.9s3.1-6.9,6.9-6.9h-.1ZM10.5,11.7l-2.4-2c.1-.1.2-.3.3-.4s.3-.3.4-.4l2.2,2.2-.3.3c0,.1-.2.2-.2.3ZM23.7,26.8c.3-.1.6-.3.8-.5l.8.9c-.1,0-.3.2-.4.3-.1,0-.3.2-.4.3l-.7-1.1h-.1ZM18,26.8v3.1h-.9v-3.1h.9ZM8.4,18.5v.4l-3.1.5v-1l3.1-.2v.4h0ZM17.2,8.4v-3.1h.9v3.1h-.9ZM20,26.8l.7,2.7c-.2,0-.3,0-.5,0h-.5l-.5-3.1h.4c.1,0,.3.2.4.2h0ZM11.9,10.4l-2-2.5c.1-.1.3-.2.4-.3.1-.1.3-.2.4-.3l1.7,2.6c-.1,0-.2.1-.3.2-.1,0-.2.2-.3.3h0ZM15.3,8.7l-.8-3.1c.2,0,.3,0,.5-.1h.5l.5,3.1h-.4c-.1,0-.2,0-.4.1h0ZM22.4,27.2l.7,1.5c-.2,0-.3.2-.5.2s-.3,0-.5.2l-.8-1.9h1.1ZM13.5,9.3l-1.4-2.8c.2,0,.3-.2.5-.2s.3-.1.5-.2l1.2,2.9c-.1,0-.3,0-.4.1-.1,0-.2.1-.3.2h-.1Z"/>
</svg>