<?xml version="1.0" encoding="UTF-8"?>
<svg id="Layer_1" xmlns="http://www.w3.org/2000/svg" version="1.1" viewBox="0 0 25 25">
  <!-- Generator: Adobe Illustrator 30.1.0, SVG Export Plug-In . SVG Version: 2.1.1 Build 136)  -->
  <defs>
    <style>
      .st0 {
        fill: none;
        isolation: isolate;
        opacity: .3;
        stroke: #818282;
        stroke-linejoin: round;
        stroke-width: .5px;
      }
    </style>
  </defs>
  <path class="st0" d="M2.9,10.9l-2.6,1v2.4l2.7.7h0c.2.6.4,1.3.7,1.9h0l-1.5,2.2,1.5,1.9,2.6-1h0c.5.4,1.1.8,1.8,1.1h0v2.7c.1,0,2.4.6,2.4.6l1.5-2.3h-.1c.7,0,1.4,0,2.2-.1h0l1.7,2.2,2.3-.8v-2.7h-.2c.3-.2.6-.4.9-.6s.5-.5.8-.7h0l2.6.8,1.3-2-1.7-2.2h0c.3-.6.5-1.3.6-2h0c0,.1,2.6-.8,2.6-.8v-2.4c-.1,0-2.7-.7-2.7-.7h0c-.2-.6-.4-1.3-.7-1.9h0l1.5-2.2-1.5-1.9-2.6,1h0c-.5-.4-1.1-.8-1.8-1.1h0V1.3c-.1,0-2.4-.6-2.4-.6l-1.5,2.3h.1-2.2l-1.7-2.2-2.3.8v2.7h.2c-.3.2-.6.4-.9.6s-.5.5-.8.7h0l-2.6-.8-1.3,2,1.7,2.2h0c-.3.6-.5,1.3-.6,2h0v-.2h0ZM8.6,7.6c2.7-2.1,6.6-1.7,8.8,1,2.1,2.7,1.7,6.6-1,8.8-2.7,2.1-6.6,1.7-8.8-1-2.1-2.7-1.7-6.6,1-8.8Z"/>
</svg>